<svg xmlns="http://www.w3.org/2000/svg" xmlns:xlink="http://www.w3.org/1999/xlink" fill="none" version="1.1" width="40" height="40" viewBox="0 0 40 40"><defs><clipPath id="master_svg0_17_93"><rect x="0" y="0" width="40" height="40" rx="0"/></clipPath></defs><g clip-path="url(#master_svg0_17_93)"><g><g><g><g><g><path d="M16.542128585052488,33.20717610740662L35.00002858505249,14.057316107406617L26.92122858505249,5.675676107406616L8.46483858505249,24.825476107406615L5.77142858505249,35.99997610740662L16.542128585052488,33.20717610740662ZM25.24562858505249,11.604976107406616L26.92122858505249,9.866496107406617L30.96052858505249,14.057316107406617L29.28672858505249,15.793976107406616L25.24562858505249,11.604976107406616ZM23.17942858505249,13.748596107406616L11.042798585052491,26.340176107406617L9.69828858505249,31.927476107406616L15.08219858505249,30.530976107406616L27.22142858505249,17.936676107406615L23.17942858505249,13.748596107406616Z" fill-rule="evenodd" fill="#FFFFFF" fill-opacity="1" style="mix-blend-mode:passthrough"/></g></g><g><g><path d="M12.46739717010498,3.004040455767212C12.675987170104982,3.032000945767212,12.83987717010498,3.205999145767212,12.86372717010498,3.425045145767212L12.93374717010498,4.082192145767212C13.14208717010498,6.037542145767212,14.51181717010498,7.642612145767212,16.35020717010498,8.085652145767213L16.822487170104978,8.199062145767211C17.09492717010498,8.263972145767212,17.28748717010498,8.51749214576721,17.28571717010498,8.808832145767212C17.28394717010498,9.10016214576721,17.08828717010498,9.35110214576721,16.815047170104982,9.412362145767212L16.35020717010498,9.516462145767212C14.51706717010498,9.929302145767211,13.14280717010498,11.518652145767211,12.93821717010498,13.462402145767213L12.86372717010498,14.177102145767211C12.83457717010498,14.413702145767212,12.64264717010498,14.591802145767211,12.41382717010498,14.594602145767212C12.184997170104982,14.597302145767213,11.98920717010498,14.423802145767212,11.95485717010498,14.187902145767213L11.85353717010498,13.378602145767212C11.61708717010498,11.475582145767213,10.26222717010498,9.931182145767213,8.465391170104981,9.516462145767212L8.01095217010498,9.412362145767212C7.73927717010498,9.350132145767212,7.54501660010498,9.100232145767212,7.542874908404981,8.810202145767212C7.5407357501049805,8.520192145767211,7.731286170104981,8.267192145767211,8.00201417010498,8.200612145767213L8.465391170104981,8.085662145767213C10.26713717010498,7.640972145767212,11.61792717010498,6.081682145767212,11.85949717010498,4.167642145767212L11.95336717010498,3.415730145767212C11.98657717010498,3.154221145767212,12.21651717010498,2.9700639457672118,12.46739717010498,3.004040455767212Z" fill="#FFFFFF" fill-opacity="1" style="mix-blend-mode:passthrough"/></g></g><g><g><path d="M31.045062082519532,26.190690766655884C31.162082082519532,26.207641056655884,31.253202082519532,26.299802056655885,31.26761208251953,26.415804056655883L31.346392082519532,27.051572056655885C31.50899208251953,28.357942056655883,32.48089208251953,29.424392056655883,33.77868208251953,29.720502056655885L34.79623208251953,29.952752056655882C34.91622208251953,29.980012056655884,35.00094208251953,30.085982056655883,34.99999208251953,30.207652056655885C34.99904208251953,30.329312056655883,34.912692082519534,30.43399205665588,34.79229208251953,30.45942205665588L33.77868208251953,30.676092056655882C32.484212082519534,30.952542056655883,31.50932208251953,32.00943205665588,31.350332082519532,33.308692056655886L31.26696208251953,33.987932056655886C31.25112208251953,34.117112056655884,31.14092208251953,34.21473205665588,31.00924208251953,34.21620205665589C30.87757208251953,34.21768205665588,30.76516208251953,34.12256205665588,30.746362082519532,33.993772056655885L30.63870208251953,33.25096205665589C30.45426208251953,31.98035205665588,29.49290208251953,30.955392056655885,28.22480208251953,30.677402056655882L27.234822082519532,30.460712056655883C27.11511658251953,30.434722056655882,27.029521506519533,30.330372056655882,27.028580529349533,30.209262056655884C27.02763786351953,30.088152056655883,27.111599382519532,29.982492056655882,27.23088408251953,29.954692056655883L28.22480208251953,29.721802056655882C29.496742082519532,29.423972056655884,30.45570208251953,28.388872056655885,30.643962082519533,27.110606056655882L30.746362082519532,26.411263056655883C30.76732208251953,26.269334856655885,30.900822082519532,26.171120756655885,31.044412082519532,26.191987046655886L31.045062082519532,26.190690766655884Z" fill="#FFFFFF" fill-opacity="1" style="mix-blend-mode:passthrough"/></g></g><g><g><path d="M5.7851099999999995,14.595261611026C5.83711,14.602795141026,5.87761,14.643756211026002,5.88402,14.695312411026L5.91903,14.977876411026001C5.9913,15.558481411026001,6.4232499999999995,16.032468411026002,7.00005,16.164068411026L7.45229,16.267288411026C7.50562,16.279398411026,7.54327,16.326508411026,7.54286,16.380578411026C7.5424299999999995,16.434648411026,7.504049999999999,16.481168411026,7.45054,16.492468411026L7.00005,16.588778411026002C6.424720000000001,16.711638411026,5.99145,17.181368411026,5.92079,17.758818411026002L5.88373,18.060698411026003C5.87669,18.118108411026,5.82771,18.161498411026002,5.76919,18.162158411026002C5.71067,18.162818411026002,5.66071,18.120538411026,5.65235,18.063298411026L5.6045,17.733158411026C5.52253,17.168448411026002,5.09526,16.712908411026,4.531658,16.589358411026L4.0916661,16.493048411026002C4.0384641,16.481498411026003,4.000421919,16.435118411026,4.0000035899,16.381288411026002C3.999585049,16.327458411026,4.0369008,16.280508411026002,4.0899159,16.268148411026L4.531659,16.164648411026C5.09697,16.032268411026003,5.52317,15.572234411026,5.60684,15.004114411026L5.65235,14.693294611026001C5.6616599999999995,14.630214311026,5.721,14.586564481026,5.7851099999999995,14.595261611026L5.7851099999999995,14.595261611026Z" fill="#FFFFFF" fill-opacity="1" style="mix-blend-mode:passthrough"/></g></g></g></g></g></g></svg>