<svg xmlns="http://www.w3.org/2000/svg" xmlns:xlink="http://www.w3.org/1999/xlink" fill="none" version="1.1" width="40" height="40" viewBox="0 0 40 40"><defs><clipPath id="master_svg0_17_007"><rect x="0" y="0" width="40" height="40" rx="0"/></clipPath></defs><g clip-path="url(#master_svg0_17_007)"><g><g><path d="M29.3333,4L10.66667,4C8.09271,4,6,6.131600000000001,6,8.75339L6,32.8286C6,33.9798,6.616146,35.0419,7.60417,35.602599999999995C8.58854,36.1597,9.8026,36.1263,10.76146,35.5172L20,29.6349L29.2385,35.5172C29.7417,35.836600000000004,30.3141,36,30.8865,36C31.4042,36,31.9255,35.870000000000005,32.3958,35.602599999999995C33.3839,35.0456,34,33.9798,34,32.8286L34,8.75339C34,6.131600000000001,31.9073,4,29.3333,4ZM30.8901,32.8286L21.6479,26.9463C20.6453,26.3112,19.351,26.3112,18.3521,26.9463L9.1099,32.8286L9.1099,8.75339C9.1099,7.8807,9.80625,7.16769,10.66667,7.16769L29.3333,7.16769C30.1901,7.16769,30.8901,7.87699,30.8901,8.75339L30.8974,32.836L30.8901,32.8286Z" fill="#FFFFFF" fill-opacity="1" style="mix-blend-mode:passthrough"/></g><g><path d="M24.4991,12L15.50088,12C14.671353,12,14,12.670960000000001,14,13.5C14,14.329039999999999,14.671353,15,15.50088,15L24.4991,15C25.3286,15,26,14.329039999999999,26,13.5C26,12.670960000000001,25.3286,12,24.4991,12Z" fill="#FFFFFF" fill-opacity="1" style="mix-blend-mode:passthrough"/></g></g></g></svg>