<svg xmlns="http://www.w3.org/2000/svg" xmlns:xlink="http://www.w3.org/1999/xlink" fill="none" version="1.1" width="40" height="40" viewBox="0 0 40 40"><defs><clipPath id="master_svg0_17_021"><rect x="0" y="0" width="40" height="40" rx="0"/></clipPath></defs><g clip-path="url(#master_svg0_17_021)"><g><path d="M13.24317,12.531279999999999L22.882199999999997,12.531279999999999C27.9178,12.531279999999999,32,16.889499999999998,32,22.2656C32,27.6418,27.9178,32,22.882199999999997,32L10.72514,32C9.88587,32,9.2055,31.2736,9.2055,30.3776C9.2055,29.4816,9.88587,28.7552,10.72514,28.7552L22.882199999999997,28.7552C26.2393,28.7552,28.9607,25.8497,28.9607,22.2656C28.9607,18.6815,26.2393,15.77607,22.882199999999997,15.77607L13.13528,15.77607L14.89349,17.65317C15.504190000000001,18.2838,15.511980000000001,19.3264,14.9108,19.967399999999998C14.30961,20.6083,13.33301,20.5985,12.743210000000001,19.9456L8.445688,15.359110000000001C7.851437,14.725380000000001,7.851437,13.69715,8.445688,13.06342L12.743210000000001,8.475294C13.33663,7.841731,14.29872,7.841545,14.89236,8.474879C15.486,9.10821,15.486509999999999,10.13536,14.89349,10.769359999999999L13.24317,12.531279999999999Z" fill="#FFFFFF" fill-opacity="1" style="mix-blend-mode:passthrough"/></g></g></svg>