<svg xmlns="http://www.w3.org/2000/svg" xmlns:xlink="http://www.w3.org/1999/xlink" fill="none" version="1.1" width="40" height="40" viewBox="0 0 40 40"><defs><clipPath id="master_svg0_17_017"><rect x="0" y="0" width="40" height="40" rx="0"/></clipPath></defs><g clip-path="url(#master_svg0_17_017)"><g><path d="M26.7803,12.53192L25.1374,10.77006C24.5463,10.13621,24.5465,9.10849,25.1377,8.474864C25.729,7.841241,26.6874,7.841782,27.278,8.47607L31.5563,13.06405C32.1479,13.697759999999999,32.1479,14.725950000000001,31.5563,15.35966L27.278,19.945999999999998C26.6872,20.5792,25.7297,20.5792,25.1389,19.945999999999998C24.548,19.3129,24.5474,18.286099999999998,25.1374,17.65203L26.8877,15.7766L17.076990000000002,15.7766C13.73494,15.7766,11.02566,18.682000000000002,11.02566,22.266C11.02566,25.8499,13.73494,28.7553,17.076990000000002,28.7553L29.1796,28.7553C30.0152,28.7553,30.6925,29.4817,30.6925,30.3777C30.6925,31.2737,30.0152,32,29.1796,32L17.076990000000002,32C12.06391,32,8,27.6419,8,22.266C8,16.89,12.06391,12.53192,17.076990000000002,12.53192L26.7803,12.53192Z" fill="#FFFFFF" fill-opacity="1" style="mix-blend-mode:passthrough"/></g></g></svg>