<svg xmlns="http://www.w3.org/2000/svg" xmlns:xlink="http://www.w3.org/1999/xlink" fill="none" version="1.1" width="40" height="40" viewBox="0 0 40 40"><defs><clipPath id="master_svg0_17_025"><rect x="0" y="0" width="40" height="40" rx="0"/></clipPath></defs><g clip-path="url(#master_svg0_17_025)"><g><path d="M23.6429,16.357100000000003L34.5714,16.357100000000003C35.9132,16.357100000000003,37,17.4379,37,18.7857L37,34.5714C37,35.9132,35.9193,37,34.5714,37L18.7857,37C17.4439,37,16.357100000000003,35.9193,16.357100000000003,34.5714L16.357100000000003,23.6429L5.428570000000001,23.6429C4.08679,23.6429,3,22.5621,3,21.2143L3,5.428570000000001C3,4.08679,4.08071,3,5.428570000000001,3L21.2143,3C22.5561,3,23.6429,4.08071,23.6429,5.428570000000001L23.6429,16.357100000000003ZM23.6429,18.7857L23.6429,21.2143C23.6429,22.5561,22.5621,23.6429,21.2143,23.6429L18.7857,23.6429L18.7857,33.3584C18.7857,34.0286,19.3285,34.5714,19.9988,34.5714L33.3571,34.5714C34.027100000000004,34.5714,34.5702,34.0283,34.5702,33.3584L34.5702,20C34.5702,19.33,34.027100000000004,18.7869,33.3571,18.7869L23.6429,18.7869L23.6429,18.7857ZM5.428570000000001,6.641640000000001L5.428570000000001,20C5.428570000000001,20.6703,5.97136,21.2131,6.641640000000001,21.2131L20,21.2131C20.67,21.2131,21.2131,20.67,21.2131,20L21.2131,6.642860000000001C21.2137,5.9729,20.6712,5.42924,20.0012,5.428570000000001L6.642860000000001,5.428570000000001C5.97242,5.4279,5.428570000000001,5.97121,5.428570000000001,6.641640000000001ZM7.85714,15.9115L7.85714,9.80607L12.13507,9.80607L12.13507,7.25L13.9091,7.25C14.152,7.28521,14.2746,7.31921,14.2746,7.35443C14.2683,7.4097,14.2505,7.46305,14.2224,7.51107C14.118,7.78914,14.0658,8.119430000000001,14.0658,8.50193L14.0658,9.80607L18.606,9.80607L18.606,15.7549L16.6753,15.7549L16.6753,14.9716L14.0658,14.9716L14.0658,19.4596L12.18729,19.4596L12.18729,14.9716L9.63121,14.9716L9.63121,15.9115L7.85714,15.9115ZM9.629999999999999,11.26807L9.629999999999999,13.5631L12.18729,13.5631L12.18729,11.26929L9.63121,11.26929L9.629999999999999,11.26807ZM16.6753,13.5631L16.6753,11.26929L14.0658,11.26929L14.0658,13.5643L16.6753,13.5643L16.6753,13.5631ZM24.4103,32.0809L22.4286,32.0809L25.9245,22.4286L28.3774,22.4286L31.7676,32.0821L29.6815,32.0821L28.9505,30.0458L25.1413,30.0458L24.4115,32.0809L24.4103,32.0809ZM25.6634,28.4284L28.4284,28.4284L27.1242,24.3071L27.072,24.3071L25.6634,28.4284ZM34.5714,12.71429L32.1429,12.71429C32.1429,10.03176,29.9682,7.85714,27.2857,7.85714L27.2857,5.428570000000001C31.3095,5.428570000000001,34.5714,8.6905,34.5714,12.71429ZM5.428570000000001,27.2857L7.85714,27.2857C7.85714,29.9682,10.03176,32.1429,12.71429,32.1429L12.71429,34.5714C8.6905,34.5714,5.428570000000001,31.3095,5.428570000000001,27.2857Z" fill="#FFFFFF" fill-opacity="1" style="mix-blend-mode:passthrough"/></g></g></svg>