<svg xmlns="http://www.w3.org/2000/svg" xmlns:xlink="http://www.w3.org/1999/xlink" fill="none" version="1.1" width="40" height="40" viewBox="0 0 40 40"><defs><clipPath id="master_svg0_17_012"><rect x="0" y="0" width="40" height="40" rx="0"/></clipPath></defs><g clip-path="url(#master_svg0_17_012)"><g><path d="M32.8922421875,10.722400624999999C29.2188421875,5.590520625,24.0017421875,3.3930086250000002,17.7889421875,4.230081625C9.1944521875,5.388020625,3.5979261875,12.737870625,4.0345897875,20.817440625C4.5016331875,29.458840625,11.3956421875,35.902440625,19.9342421875,35.943140625C22.5305421875,35.955440625,24.9274421875,35.406340625,27.1358421875,34.270740625C27.5658421875,34.049540625,28.0101421875,33.820640624999996,28.3696421875,33.505940625C28.9830421875,32.969140625,29.1831421875,32.282340625,28.6945421875,31.557440625C28.2346421875,30.875040625,27.5971421875,30.615840625,26.8045421875,31.002140625C26.3682421875,31.214840625,25.9546421875,31.476940625,25.5112421875,31.672140625C20.6925421875,33.793040625,16.0905421875,33.356540625,11.9694521875,30.102440625C7.8326121875000005,26.835940625,6.2950921875,22.389240625,7.400552187500001,17.269040625000002C8.526542187499999,12.053460625,11.8856321875,8.679390625,17.076942187500002,7.470640625C22.2795421875,6.259230625,26.7627421875,7.861820625,30.0662421875,12.036510625C33.4279421875,16.284840625,33.7248421875,21.016540625,31.4488421875,25.915440625C31.2702421875,26.299840625,31.0085421875,26.657740625,30.8977421875,27.058940625C30.7019421875,27.768140625,30.8869421875,28.416840625,31.5657421875,28.779840625C32.2155421875,29.127240625,32.8916421875,29.065140625,33.3859421875,28.481840625C33.7339421875,28.071140625,34.0244421875,27.592140625,34.2526421875,27.102640625C36.9178421875,21.387040625,36.5536421875,15.837540625,32.8922421875,10.722400624999999Z" fill="#FFFFFF" fill-opacity="1" style="mix-blend-mode:passthrough"/></g><g><path d="M21.47523265625,14.66799130859375C21.46979265625,13.27042130859375,21.49410265625,11.87133130859375,21.433902656249998,10.47599130859375C21.39724265625,9.62760730859375,20.85257265625,9.16412120859375,20.00527265625,9.12083053859375C19.22835665625,9.08105770859375,18.65382665625,9.57352330859375,18.50652615625,10.41155130859375C18.44408875625,10.76687130859375,18.46603393625,11.13858130859375,18.46559448625,11.50285130859375C18.46247711625,14.055401308593751,18.45292358625,16.60807130859375,18.46675414625,19.16059130859375C18.47738645625,21.12459130859375,18.87163965625,21.53549130859375,20.78334265625,21.565991308593752C22.30231265625,21.59039130859375,23.82216265625,21.58059130859375,25.34137265625,21.564791308593747C25.76180265625,21.56049130859375,26.20147265625,21.54509130859375,26.59712265625,21.42189130859375C27.312162656250003,21.19909130859375,27.685982656249998,20.67049130859375,27.635742656250002,19.901491308593748C27.59093265625,19.215691308593748,27.21106265625,18.74442130859375,26.55571265625,18.60084130859375C26.02939265625,18.485481308593748,25.47356265625,18.481801308593752,24.93001265625,18.47277130859375C23.85118265625,18.45486130859375,22.77192265625,18.46749130859375,21.47615265625,18.46749130859375C21.47615265625,17.06548130859375,21.47983265625,15.866741308593749,21.47523265625,14.66799130859375Z" fill="#FFFFFF" fill-opacity="1" style="mix-blend-mode:passthrough"/></g></g></svg>